<?xml version="1.0" standalone="no"?><!DOCTYPE svg PUBLIC "-//W3C//DTD SVG 1.1//EN" "http://www.w3.org/Graphics/SVG/1.1/DTD/svg11.dtd"><svg width="200" height="200" viewBox="0 0 200 200" version="1.1" xmlns="http://www.w3.org/2000/svg" xmlns:xlink="http://www.w3.org/1999/xlink"><defs><style type="text/css"><![CDATA[
@font-face { font-family: ifont; src: url("http://at.alicdn.com/t/font_1442373896_4754455.eot?#iefix") format("embedded-opentype"), url("http://at.alicdn.com/t/font_1442373896_4754455.woff") format("woff"), url("http://at.alicdn.com/t/font_1442373896_4754455.ttf") format("truetype"), url("http://at.alicdn.com/t/font_1442373896_4754455.svg#ifont") format("svg"); }

]]></style></defs><g class="transform-group"><g transform="scale(0.1953125, 0.1953125)"><path d="M512 12.3C236 12.3 12.3 236 12.3 512S236 1011.7 512 1011.7 1011.7 788 1011.7 512 788 12.3 512 12.3zM770 679.5c25 25 25 65.5 0 90.5l0 0c-25 25-65.5 25-90.5 0L512 602.5 344.5 770c-25 25-65.5 25-90.5 0l0 0c-25-25-25-65.5 0-90.5L421.5 512 254 344.5c-25-25-25-65.5 0-90.5l0 0c25-25 65.5-25 90.5 0L512 421.5 679.5 254c25-25 65.5-25 90.5 0l0 0c25 25 25 65.5 0 90.5L602.5 512 770 679.5z" fill="#ecf0f1"></path></g></g></svg>