<?xml version="1.0" standalone="no"?><!DOCTYPE svg PUBLIC "-//W3C//DTD SVG 1.1//EN" "http://www.w3.org/Graphics/SVG/1.1/DTD/svg11.dtd"><svg width="200" height="200" viewBox="0 0 200 200" version="1.1" xmlns="http://www.w3.org/2000/svg" xmlns:xlink="http://www.w3.org/1999/xlink"><defs><style type="text/css"><![CDATA[
@font-face { font-family: ifont; src: url("http://at.alicdn.com/t/font_1442373896_4754455.eot?#iefix") format("embedded-opentype"), url("http://at.alicdn.com/t/font_1442373896_4754455.woff") format("woff"), url("http://at.alicdn.com/t/font_1442373896_4754455.ttf") format("truetype"), url("http://at.alicdn.com/t/font_1442373896_4754455.svg#ifont") format("svg"); }

]]></style></defs><g class="transform-group"><g transform="scale(0.1953125, 0.1953125)"><path d="M985.6 870.4l-236.8-236.8c0 0-6.4-6.4-6.4-6.4 38.4-64 64-134.4 64-217.6 0-217.6-179.2-396.8-396.8-396.8S12.8 192 12.8 409.6s179.2 396.8 396.8 396.8c76.8 0 153.6-25.6 217.6-64 0 0 6.4 6.4 6.4 6.4l236.8 236.8c19.2 19.2 38.4 25.6 57.6 25.6 19.2 0 44.8-6.4 57.6-25.6C1017.6 953.6 1017.6 902.4 985.6 870.4M409.6 678.4c-147.2 0-268.8-121.6-268.8-268.8S256 134.4 409.6 134.4s268.8 121.6 268.8 268.8S556.8 678.4 409.6 678.4" fill="#ecf0f1"></path></g></g></svg>